# Blender 3.4.1
# www.blender.org
o Cylinder
v 0.000000 -1.000000 -1.000000
v 0.000000 0.669551 -1.000000
v 0.098017 -1.000000 -0.995185
v 0.098017 0.669551 -0.995185
v 0.195090 -1.000000 -0.980785
v 0.195090 0.669551 -0.980785
v 0.290285 -1.000000 -0.956940
v 0.290285 0.669551 -0.956940
v 0.382683 -1.000000 -0.923880
v 0.382683 0.669551 -0.923880
v 0.471397 -1.000000 -0.881921
v 0.471397 0.669551 -0.881921
v 0.555570 -1.000000 -0.831470
v 0.555570 0.669551 -0.831470
v 0.634393 -1.000000 -0.773010
v 0.634393 0.669551 -0.773010
v 0.707107 -1.000000 -0.707107
v 0.707107 0.669551 -0.707107
v 0.773010 -1.000000 -0.634393
v 0.773010 0.669551 -0.634393
v 0.831470 -1.000000 -0.555570
v 0.831470 0.669551 -0.555570
v 0.881921 -1.000000 -0.471397
v 0.881921 0.669551 -0.471397
v 0.923880 -1.000000 -0.382683
v 0.923880 0.669551 -0.382683
v 0.956940 -1.000000 -0.290285
v 0.956940 0.669551 -0.290285
v 0.980785 -1.000000 -0.195090
v 0.980785 0.669551 -0.195090
v 0.995185 -1.000000 -0.098017
v 0.995185 0.669551 -0.098017
v 1.000000 -1.000000 0.000000
v 1.000000 0.669551 0.000000
v 0.995185 -1.000000 0.098017
v 0.995185 0.669551 0.098017
v 0.980785 -1.000000 0.195090
v 0.980785 0.669551 0.195090
v 0.956940 -1.000000 0.290285
v 0.956940 0.669551 0.290285
v 0.923880 -1.000000 0.382683
v 0.923880 0.669551 0.382683
v 0.881921 -1.000000 0.471397
v 0.881921 0.669551 0.471397
v 0.831470 -1.000000 0.555570
v 0.831470 0.669551 0.555570
v 0.773010 -1.000000 0.634393
v 0.773010 0.669551 0.634393
v 0.707107 -1.000000 0.707107
v 0.707107 0.669551 0.707107
v 0.634393 -1.000000 0.773010
v 0.634393 0.669551 0.773010
v 0.555570 -1.000000 0.831470
v 0.555570 0.669551 0.831470
v 0.471397 -1.000000 0.881921
v 0.471397 0.669551 0.881921
v 0.382683 -1.000000 0.923880
v 0.382683 0.669551 0.923880
v 0.290285 -1.000000 0.956940
v 0.290285 0.669551 0.956940
v 0.195090 -1.000000 0.980785
v 0.195090 0.669551 0.980785
v 0.098017 -1.000000 0.995185
v 0.098017 0.669551 0.995185
v 0.000000 -1.000000 1.000000
v 0.000000 0.669551 1.000000
v -0.098017 -1.000000 0.995185
v -0.098017 0.669551 0.995185
v -0.195090 -1.000000 0.980785
v -0.195090 0.669551 0.980785
v -0.290285 -1.000000 0.956940
v -0.290285 0.669551 0.956940
v -0.382683 -1.000000 0.923880
v -0.382683 0.669551 0.923880
v -0.471397 -1.000000 0.881921
v -0.471397 0.669551 0.881921
v -0.555570 -1.000000 0.831470
v -0.555570 0.669551 0.831470
v -0.634393 -1.000000 0.773010
v -0.634393 0.669551 0.773010
v -0.707107 -1.000000 0.707107
v -0.707107 0.669551 0.707107
v -0.773010 -1.000000 0.634393
v -0.773010 0.669551 0.634393
v -0.831470 -1.000000 0.555570
v -0.831470 0.669551 0.555570
v -0.881921 -1.000000 0.471397
v -0.881921 0.669551 0.471397
v -0.923880 -1.000000 0.382683
v -0.923880 0.669551 0.382683
v -0.956940 -1.000000 0.290285
v -0.956940 0.669551 0.290285
v -0.980785 -1.000000 0.195090
v -0.980785 0.669551 0.195090
v -0.995185 -1.000000 0.098017
v -0.995185 0.669551 0.098017
v -1.000000 -1.000000 0.000000
v -1.000000 0.669551 0.000000
v -0.995185 -1.000000 -0.098017
v -0.995185 0.669551 -0.098017
v -0.980785 -1.000000 -0.195090
v -0.980785 0.669551 -0.195090
v -0.956940 -1.000000 -0.290285
v -0.956940 0.669551 -0.290285
v -0.923880 -1.000000 -0.382683
v -0.923880 0.669551 -0.382683
v -0.881921 -1.000000 -0.471397
v -0.881921 0.669551 -0.471397
v -0.831470 -1.000000 -0.555570
v -0.831470 0.669551 -0.555570
v -0.773010 -1.000000 -0.634393
v -0.773010 0.669551 -0.634393
v -0.707107 -1.000000 -0.707107
v -0.707107 0.669551 -0.707107
v -0.634393 -1.000000 -0.773010
v -0.634393 0.669551 -0.773010
v -0.555570 -1.000000 -0.831470
v -0.555570 0.669551 -0.831470
v -0.471397 -1.000000 -0.881921
v -0.471397 0.669551 -0.881921
v -0.382683 -1.000000 -0.923880
v -0.382683 0.669551 -0.923880
v -0.290285 -1.000000 -0.956940
v -0.290285 0.669551 -0.956940
v -0.195090 -1.000000 -0.980785
v -0.195090 0.669551 -0.980785
v -0.098017 -1.000000 -0.995185
v -0.098017 0.669551 -0.995185
v 0.009795 1.379948 -0.099450
v 0.000000 1.379948 -0.099931
v 0.019496 1.379948 -0.098011
v 0.029008 1.379948 -0.095628
v 0.038242 1.379948 -0.092324
v 0.047107 1.379948 -0.088131
v 0.055519 1.379948 -0.083089
v 0.063395 1.379948 -0.077248
v 0.070662 1.379948 -0.070662
v 0.077248 1.379948 -0.063395
v 0.083089 1.379948 -0.055519
v 0.088131 1.379948 -0.047107
v 0.092324 1.379948 -0.038242
v 0.095628 1.379948 -0.029008
v 0.098011 1.379948 -0.019496
v 0.099450 1.379948 -0.009795
v 0.099931 1.379948 0.000000
v 0.099450 1.379948 0.009795
v 0.098011 1.379948 0.019496
v 0.095628 1.379948 0.029008
v 0.092324 1.379948 0.038242
v 0.088131 1.379948 0.047107
v 0.083089 1.379948 0.055519
v 0.077248 1.379948 0.063395
v 0.070662 1.379948 0.070662
v 0.063395 1.379948 0.077248
v 0.055519 1.379948 0.083089
v 0.047107 1.379948 0.088131
v 0.038242 1.379948 0.092324
v 0.029008 1.379948 0.095628
v 0.019496 1.379948 0.098011
v 0.009795 1.379948 0.099450
v 0.000000 1.379948 0.099931
v -0.009795 1.379948 0.099450
v -0.019496 1.379948 0.098011
v -0.029008 1.379948 0.095628
v -0.038242 1.379948 0.092324
v -0.047107 1.379948 0.088131
v -0.055519 1.379948 0.083089
v -0.063395 1.379948 0.077248
v -0.070662 1.379948 0.070662
v -0.077248 1.379948 0.063395
v -0.083089 1.379948 0.055519
v -0.088131 1.379948 0.047107
v -0.092324 1.379948 0.038242
v -0.095628 1.379948 0.029008
v -0.098011 1.379948 0.019496
v -0.099450 1.379948 0.009795
v -0.099931 1.379948 0.000000
v -0.099450 1.379948 -0.009795
v -0.098011 1.379948 -0.019496
v -0.095628 1.379948 -0.029008
v -0.092324 1.379948 -0.038242
v -0.088131 1.379948 -0.047107
v -0.083089 1.379948 -0.055519
v -0.077248 1.379948 -0.063395
v -0.070662 1.379948 -0.070662
v -0.063395 1.379948 -0.077248
v -0.055519 1.379948 -0.083089
v -0.047107 1.379948 -0.088131
v -0.038242 1.379948 -0.092324
v -0.029008 1.379948 -0.095628
v -0.019496 1.379948 -0.098011
v -0.009795 1.379948 -0.099450
vn 0.0491 -0.0000 -0.9988
vn 0.1467 -0.0000 -0.9892
vn 0.2430 -0.0000 -0.9700
vn 0.3369 -0.0000 -0.9415
vn 0.4276 -0.0000 -0.9040
vn 0.5141 -0.0000 -0.8577
vn 0.5957 -0.0000 -0.8032
vn 0.6716 -0.0000 -0.7410
vn 0.7410 -0.0000 -0.6716
vn 0.8032 -0.0000 -0.5957
vn 0.8577 -0.0000 -0.5141
vn 0.9040 -0.0000 -0.4276
vn 0.9415 -0.0000 -0.3369
vn 0.9700 -0.0000 -0.2430
vn 0.9892 -0.0000 -0.1467
vn 0.9988 -0.0000 -0.0491
vn 0.9988 -0.0000 0.0491
vn 0.9892 -0.0000 0.1467
vn 0.9700 -0.0000 0.2430
vn 0.9415 -0.0000 0.3369
vn 0.9040 -0.0000 0.4276
vn 0.8577 -0.0000 0.5141
vn 0.8032 -0.0000 0.5957
vn 0.7410 -0.0000 0.6716
vn 0.6716 -0.0000 0.7410
vn 0.5957 -0.0000 0.8032
vn 0.5141 -0.0000 0.8577
vn 0.4276 -0.0000 0.9040
vn 0.3369 -0.0000 0.9415
vn 0.2430 -0.0000 0.9700
vn 0.1467 -0.0000 0.9892
vn 0.0491 -0.0000 0.9988
vn -0.0491 -0.0000 0.9988
vn -0.1467 -0.0000 0.9892
vn -0.2430 -0.0000 0.9700
vn -0.3369 -0.0000 0.9415
vn -0.4276 -0.0000 0.9040
vn -0.5141 -0.0000 0.8577
vn -0.5957 -0.0000 0.8032
vn -0.6716 -0.0000 0.7410
vn -0.7410 -0.0000 0.6716
vn -0.8032 -0.0000 0.5957
vn -0.8577 -0.0000 0.5141
vn -0.9040 -0.0000 0.4276
vn -0.9415 -0.0000 0.3369
vn -0.9700 -0.0000 0.2430
vn -0.9892 -0.0000 0.1467
vn -0.9988 -0.0000 0.0491
vn -0.9988 -0.0000 -0.0491
vn -0.9892 -0.0000 -0.1467
vn -0.9700 -0.0000 -0.2430
vn -0.9415 -0.0000 -0.3369
vn -0.9040 -0.0000 -0.4276
vn -0.8577 -0.0000 -0.5141
vn -0.8032 -0.0000 -0.5957
vn -0.7410 -0.0000 -0.6716
vn -0.6716 -0.0000 -0.7410
vn -0.5957 -0.0000 -0.8032
vn -0.5141 -0.0000 -0.8577
vn -0.4276 -0.0000 -0.9040
vn -0.3369 -0.0000 -0.9415
vn -0.2430 -0.0000 -0.9700
vn -0.5605 0.7846 0.2651
vn -0.1467 -0.0000 -0.9892
vn -0.0491 -0.0000 -0.9988
vn -0.0000 -1.0000 -0.0000
vn -0.0000 1.0000 -0.0000
vn 0.6133 0.7846 0.0910
vn -0.5605 0.7846 -0.2651
vn 0.0304 0.7846 -0.6193
vn 0.3187 0.7846 0.5318
vn -0.1506 0.7846 -0.6014
vn -0.2089 0.7846 0.5838
vn 0.4980 0.7846 -0.3693
vn -0.5838 0.7846 0.2089
vn 0.6014 0.7846 0.1506
vn -0.5318 0.7846 -0.3187
vn 0.2651 0.7846 0.5605
vn -0.0910 0.7846 -0.6133
vn 0.0910 0.7846 -0.6133
vn -0.2651 0.7846 0.5605
vn 0.5318 0.7846 -0.3187
vn -0.6014 0.7846 0.1506
vn 0.5838 0.7846 0.2089
vn -0.4980 0.7846 -0.3693
vn 0.2089 0.7846 0.5838
vn -0.0304 0.7846 -0.6193
vn 0.1506 0.7846 -0.6014
vn -0.3187 0.7846 0.5318
vn 0.5605 0.7846 -0.2651
vn -0.6133 0.7846 0.0910
vn 0.5605 0.7846 0.2651
vn -0.4594 0.7846 -0.4164
vn 0.1506 0.7846 0.6014
vn 0.2089 0.7846 -0.5838
vn -0.3693 0.7846 0.4980
vn 0.5838 0.7846 -0.2089
vn -0.6193 0.7846 0.0304
vn 0.5318 0.7846 0.3187
vn -0.4164 0.7846 -0.4594
vn 0.0910 0.7846 0.6133
vn 0.2651 0.7846 -0.5605
vn -0.4164 0.7846 0.4594
vn 0.6014 0.7846 -0.1506
vn -0.6193 0.7846 -0.0304
vn 0.4980 0.7846 0.3693
vn -0.3693 0.7846 -0.4980
vn 0.0304 0.7846 0.6193
vn 0.3187 0.7846 -0.5318
vn -0.4594 0.7846 0.4164
vn 0.6133 0.7846 -0.0910
vn -0.6133 0.7846 -0.0910
vn 0.4594 0.7846 0.4164
vn -0.3187 0.7846 -0.5318
vn -0.0304 0.7846 0.6193
vn 0.3693 0.7846 -0.4980
vn -0.4980 0.7846 0.3693
vn 0.6193 0.7846 -0.0304
vn -0.6014 0.7846 -0.1506
vn 0.4164 0.7846 0.4594
vn -0.2651 0.7846 -0.5605
vn -0.0910 0.7846 0.6133
vn 0.4164 0.7846 -0.4594
vn -0.5318 0.7846 0.3187
vn 0.6193 0.7846 0.0304
vn -0.5838 0.7846 -0.2089
vn 0.3693 0.7846 0.4980
vn -0.2089 0.7846 -0.5838
vn -0.1506 0.7846 0.6014
vn 0.4594 0.7846 -0.4164
vt 1.000000 0.500000
vt 0.000000 0.500000
vt 0.750000 0.490000
vt 1.000000 1.000000
vt 0.000000 1.000000
vt 0.984375 0.500000
vt 0.773524 0.488844
vt 0.984375 1.000000
vt 0.968750 0.500000
vt 0.796822 0.485388
vt 0.968750 1.000000
vt 0.953125 0.500000
vt 0.819668 0.479666
vt 0.953125 1.000000
vt 0.937500 0.500000
vt 0.841844 0.471731
vt 0.937500 1.000000
vt 0.921875 0.500000
vt 0.863135 0.461661
vt 0.921875 1.000000
vt 0.906250 0.500000
vt 0.883337 0.449553
vt 0.906250 1.000000
vt 0.890625 0.500000
vt 0.902254 0.435522
vt 0.890625 1.000000
vt 0.875000 0.500000
vt 0.919706 0.419706
vt 0.875000 1.000000
vt 0.859375 0.500000
vt 0.935522 0.402254
vt 0.859375 1.000000
vt 0.843750 0.500000
vt 0.949553 0.383337
vt 0.843750 1.000000
vt 0.828125 0.500000
vt 0.961661 0.363135
vt 0.828125 1.000000
vt 0.812500 0.500000
vt 0.971731 0.341844
vt 0.812500 1.000000
vt 0.796875 0.500000
vt 0.979666 0.319668
vt 0.796875 1.000000
vt 0.781250 0.500000
vt 0.985388 0.296822
vt 0.781250 1.000000
vt 0.765625 0.500000
vt 0.988844 0.273524
vt 0.765625 1.000000
vt 0.750000 0.500000
vt 0.990000 0.250000
vt 0.750000 1.000000
vt 0.734375 0.500000
vt 0.988844 0.226476
vt 0.734375 1.000000
vt 0.718750 0.500000
vt 0.985388 0.203178
vt 0.718750 1.000000
vt 0.703125 0.500000
vt 0.979666 0.180332
vt 0.703125 1.000000
vt 0.687500 0.500000
vt 0.971731 0.158156
vt 0.687500 1.000000
vt 0.671875 0.500000
vt 0.961661 0.136865
vt 0.671875 1.000000
vt 0.656250 0.500000
vt 0.949553 0.116663
vt 0.656250 1.000000
vt 0.640625 0.500000
vt 0.935522 0.097746
vt 0.640625 1.000000
vt 0.625000 0.500000
vt 0.919706 0.080294
vt 0.625000 1.000000
vt 0.609375 0.500000
vt 0.902254 0.064478
vt 0.609375 1.000000
vt 0.593750 0.500000
vt 0.883337 0.050447
vt 0.593750 1.000000
vt 0.578125 0.500000
vt 0.863135 0.038339
vt 0.578125 1.000000
vt 0.562500 0.500000
vt 0.841844 0.028269
vt 0.562500 1.000000
vt 0.546875 0.500000
vt 0.819668 0.020334
vt 0.546875 1.000000
vt 0.531250 0.500000
vt 0.796822 0.014612
vt 0.531250 1.000000
vt 0.515625 0.500000
vt 0.773524 0.011156
vt 0.515625 1.000000
vt 0.500000 0.500000
vt 0.750000 0.010000
vt 0.500000 1.000000
vt 0.484375 0.500000
vt 0.726476 0.011156
vt 0.484375 1.000000
vt 0.468750 0.500000
vt 0.703178 0.014612
vt 0.468750 1.000000
vt 0.453125 0.500000
vt 0.680332 0.020334
vt 0.453125 1.000000
vt 0.437500 0.500000
vt 0.658156 0.028269
vt 0.437500 1.000000
vt 0.421875 0.500000
vt 0.636865 0.038339
vt 0.421875 1.000000
vt 0.406250 0.500000
vt 0.616663 0.050447
vt 0.406250 1.000000
vt 0.390625 0.500000
vt 0.597746 0.064478
vt 0.390625 1.000000
vt 0.375000 0.500000
vt 0.580294 0.080294
vt 0.375000 1.000000
vt 0.359375 0.500000
vt 0.564478 0.097746
vt 0.359375 1.000000
vt 0.343750 0.500000
vt 0.550447 0.116663
vt 0.343750 1.000000
vt 0.328125 0.500000
vt 0.538339 0.136865
vt 0.328125 1.000000
vt 0.312500 0.500000
vt 0.528269 0.158156
vt 0.312500 1.000000
vt 0.296875 0.500000
vt 0.520334 0.180332
vt 0.296875 1.000000
vt 0.281250 0.500000
vt 0.514612 0.203178
vt 0.281250 1.000000
vt 0.265625 0.500000
vt 0.511156 0.226476
vt 0.265625 1.000000
vt 0.250000 0.500000
vt 0.510000 0.250000
vt 0.250000 1.000000
vt 0.234375 0.500000
vt 0.511156 0.273524
vt 0.234375 1.000000
vt 0.218750 0.500000
vt 0.514612 0.296822
vt 0.218750 1.000000
vt 0.203125 0.500000
vt 0.520334 0.319668
vt 0.203125 1.000000
vt 0.187500 0.500000
vt 0.528269 0.341844
vt 0.187500 1.000000
vt 0.171875 0.500000
vt 0.538339 0.363135
vt 0.171875 1.000000
vt 0.156250 0.500000
vt 0.550447 0.383337
vt 0.156250 1.000000
vt 0.140625 0.500000
vt 0.564478 0.402254
vt 0.140625 1.000000
vt 0.125000 0.500000
vt 0.580294 0.419706
vt 0.125000 1.000000
vt 0.109375 0.500000
vt 0.597746 0.435522
vt 0.109375 1.000000
vt 0.093750 0.500000
vt 0.616663 0.449553
vt 0.093750 1.000000
vt 0.078125 0.500000
vt 0.636865 0.461661
vt 0.078125 1.000000
vt 0.062500 0.500000
vt 0.658156 0.471731
vt 0.062500 1.000000
vt 0.046875 0.500000
vt 0.680332 0.479666
vt 0.046875 1.000000
vt 0.031250 0.500000
vt 0.703178 0.485388
vt 0.031250 1.000000
vt 0.015625 0.500000
vt 0.726476 0.488844
vt 0.015625 1.000000
vt 0.273524 0.488844
vt 0.984375 1.000000
vt 0.250000 0.490000
vt 1.000000 1.000000
vt 0.000000 1.000000
vt 0.296822 0.485388
vt 0.968750 1.000000
vt 0.319668 0.479666
vt 0.953125 1.000000
vt 0.341844 0.471731
vt 0.937500 1.000000
vt 0.363135 0.461661
vt 0.921875 1.000000
vt 0.383337 0.449553
vt 0.906250 1.000000
vt 0.402254 0.435522
vt 0.890625 1.000000
vt 0.419706 0.419706
vt 0.875000 1.000000
vt 0.435522 0.402254
vt 0.859375 1.000000
vt 0.449553 0.383337
vt 0.843750 1.000000
vt 0.461661 0.363135
vt 0.828125 1.000000
vt 0.471731 0.341844
vt 0.812500 1.000000
vt 0.479666 0.319668
vt 0.796875 1.000000
vt 0.485388 0.296822
vt 0.781250 1.000000
vt 0.488844 0.273524
vt 0.765625 1.000000
vt 0.490000 0.250000
vt 0.750000 1.000000
vt 0.488844 0.226476
vt 0.734375 1.000000
vt 0.485388 0.203178
vt 0.718750 1.000000
vt 0.479666 0.180332
vt 0.703125 1.000000
vt 0.471731 0.158156
vt 0.687500 1.000000
vt 0.461661 0.136865
vt 0.671875 1.000000
vt 0.449553 0.116663
vt 0.656250 1.000000
vt 0.435522 0.097746
vt 0.640625 1.000000
vt 0.419706 0.080294
vt 0.625000 1.000000
vt 0.402254 0.064478
vt 0.609375 1.000000
vt 0.383337 0.050447
vt 0.593750 1.000000
vt 0.363135 0.038339
vt 0.578125 1.000000
vt 0.341844 0.028269
vt 0.562500 1.000000
vt 0.319668 0.020334
vt 0.546875 1.000000
vt 0.296822 0.014612
vt 0.531250 1.000000
vt 0.273524 0.011156
vt 0.515625 1.000000
vt 0.250000 0.010000
vt 0.500000 1.000000
vt 0.226476 0.011156
vt 0.484375 1.000000
vt 0.203178 0.014612
vt 0.468750 1.000000
vt 0.180332 0.020334
vt 0.453125 1.000000
vt 0.158156 0.028269
vt 0.437500 1.000000
vt 0.136865 0.038339
vt 0.421875 1.000000
vt 0.116663 0.050447
vt 0.406250 1.000000
vt 0.097746 0.064478
vt 0.390625 1.000000
vt 0.080294 0.080294
vt 0.375000 1.000000
vt 0.064478 0.097746
vt 0.359375 1.000000
vt 0.050447 0.116663
vt 0.343750 1.000000
vt 0.038339 0.136865
vt 0.328125 1.000000
vt 0.028269 0.158156
vt 0.312500 1.000000
vt 0.020334 0.180332
vt 0.296875 1.000000
vt 0.014612 0.203178
vt 0.281250 1.000000
vt 0.011156 0.226476
vt 0.265625 1.000000
vt 0.010000 0.250000
vt 0.250000 1.000000
vt 0.011156 0.273524
vt 0.234375 1.000000
vt 0.014612 0.296822
vt 0.218750 1.000000
vt 0.020334 0.319668
vt 0.203125 1.000000
vt 0.028269 0.341844
vt 0.187500 1.000000
vt 0.038339 0.363135
vt 0.171875 1.000000
vt 0.050447 0.383337
vt 0.156250 1.000000
vt 0.064478 0.402254
vt 0.140625 1.000000
vt 0.080294 0.419706
vt 0.125000 1.000000
vt 0.097746 0.435522
vt 0.109375 1.000000
vt 0.116663 0.449553
vt 0.093750 1.000000
vt 0.136865 0.461661
vt 0.078125 1.000000
vt 0.158156 0.471731
vt 0.062500 1.000000
vt 0.180332 0.479666
vt 0.046875 1.000000
vt 0.203178 0.485388
vt 0.031250 1.000000
vt 0.226476 0.488844
vt 0.015625 1.000000
s 0
f 1/1/1 2/4/1 4/8/1 3/6/1
f 3/6/2 4/8/2 6/11/2 5/9/2
f 5/9/3 6/11/3 8/14/3 7/12/3
f 7/12/4 8/14/4 10/17/4 9/15/4
f 9/15/5 10/17/5 12/20/5 11/18/5
f 11/18/6 12/20/6 14/23/6 13/21/6
f 13/21/7 14/23/7 16/26/7 15/24/7
f 15/24/8 16/26/8 18/29/8 17/27/8
f 17/27/9 18/29/9 20/32/9 19/30/9
f 19/30/10 20/32/10 22/35/10 21/33/10
f 21/33/11 22/35/11 24/38/11 23/36/11
f 23/36/12 24/38/12 26/41/12 25/39/12
f 25/39/13 26/41/13 28/44/13 27/42/13
f 27/42/14 28/44/14 30/47/14 29/45/14
f 29/45/15 30/47/15 32/50/15 31/48/15
f 31/48/16 32/50/16 34/53/16 33/51/16
f 33/51/17 34/53/17 36/56/17 35/54/17
f 35/54/18 36/56/18 38/59/18 37/57/18
f 37/57/19 38/59/19 40/62/19 39/60/19
f 39/60/20 40/62/20 42/65/20 41/63/20
f 41/63/21 42/65/21 44/68/21 43/66/21
f 43/66/22 44/68/22 46/71/22 45/69/22
f 45/69/23 46/71/23 48/74/23 47/72/23
f 47/72/24 48/74/24 50/77/24 49/75/24
f 49/75/25 50/77/25 52/80/25 51/78/25
f 51/78/26 52/80/26 54/83/26 53/81/26
f 53/81/27 54/83/27 56/86/27 55/84/27
f 55/84/28 56/86/28 58/89/28 57/87/28
f 57/87/29 58/89/29 60/92/29 59/90/29
f 59/90/30 60/92/30 62/95/30 61/93/30
f 61/93/31 62/95/31 64/98/31 63/96/31
f 63/96/32 64/98/32 66/101/32 65/99/32
f 65/99/33 66/101/33 68/104/33 67/102/33
f 67/102/34 68/104/34 70/107/34 69/105/34
f 69/105/35 70/107/35 72/110/35 71/108/35
f 71/108/36 72/110/36 74/113/36 73/111/36
f 73/111/37 74/113/37 76/116/37 75/114/37
f 75/114/38 76/116/38 78/119/38 77/117/38
f 77/117/39 78/119/39 80/122/39 79/120/39
f 79/120/40 80/122/40 82/125/40 81/123/40
f 81/123/41 82/125/41 84/128/41 83/126/41
f 83/126/42 84/128/42 86/131/42 85/129/42
f 85/129/43 86/131/43 88/134/43 87/132/43
f 87/132/44 88/134/44 90/137/44 89/135/44
f 89/135/45 90/137/45 92/140/45 91/138/45
f 91/138/46 92/140/46 94/143/46 93/141/46
f 93/141/47 94/143/47 96/146/47 95/144/47
f 95/144/48 96/146/48 98/149/48 97/147/48
f 97/147/49 98/149/49 100/152/49 99/150/49
f 99/150/50 100/152/50 102/155/50 101/153/50
f 101/153/51 102/155/51 104/158/51 103/156/51
f 103/156/52 104/158/52 106/161/52 105/159/52
f 105/159/53 106/161/53 108/164/53 107/162/53
f 107/162/54 108/164/54 110/167/54 109/165/54
f 109/165/55 110/167/55 112/170/55 111/168/55
f 111/168/56 112/170/56 114/173/56 113/171/56
f 113/171/57 114/173/57 116/176/57 115/174/57
f 115/174/58 116/176/58 118/179/58 117/177/58
f 117/177/59 118/179/59 120/182/59 119/180/59
f 119/180/60 120/182/60 122/185/60 121/183/60
f 121/183/61 122/185/61 124/188/61 123/186/61
f 123/186/62 124/188/62 126/191/62 125/189/62
f 90/137/63 88/134/63 172/283/63 173/285/63
f 125/189/64 126/191/64 128/194/64 127/192/64
f 127/192/65 128/194/65 2/5/65 1/2/65
f 1/3/66 3/7/66 5/10/66 7/13/66 9/16/66 11/19/66 13/22/66 15/25/66 17/28/66 19/31/66 21/34/66 23/37/66 25/40/66 27/43/66 29/46/66 31/49/66 33/52/66 35/55/66 37/58/66 39/61/66 41/64/66 43/67/66 45/70/66 47/73/66 49/76/66 51/79/66 53/82/66 55/85/66 57/88/66 59/91/66 61/94/66 63/97/66 65/100/66 67/103/66 69/106/66 71/109/66 73/112/66 75/115/66 77/118/66 79/121/66 81/124/66 83/127/66 85/130/66 87/133/66 89/136/66 91/139/66 93/142/66 95/145/66 97/148/66 99/151/66 101/154/66 103/157/66 105/160/66 107/163/66 109/166/66 111/169/66 113/172/66 115/175/66 117/178/66 119/181/66 121/184/66 123/187/66 125/190/66 127/193/66
f 129/195/67 130/197/67 192/322/67 191/320/67 190/318/67 189/316/67 188/314/67 187/312/67 186/310/67 185/308/67 184/306/67 183/304/67 182/302/67 181/300/67 180/298/67 179/296/67 178/294/67 177/292/67 176/290/67 175/288/67 174/286/67 173/284/67 172/282/67 171/280/67 170/278/67 169/276/67 168/274/67 167/272/67 166/270/67 165/268/67 164/266/67 163/264/67 162/262/67 161/260/67 160/258/67 159/256/67 158/254/67 157/252/67 156/250/67 155/248/67 154/246/67 153/244/67 152/242/67 151/240/67 150/238/67 149/236/67 148/234/67 147/232/67 146/230/67 145/228/67 144/226/67 143/224/67 142/222/67 141/220/67 140/218/67 139/216/67 138/214/67 137/212/67 136/210/67 135/208/67 134/206/67 133/204/67 132/202/67 131/200/67
f 38/59/68 36/56/68 146/231/68 147/233/68
f 108/164/69 106/161/69 181/301/69 182/303/69
f 4/8/70 2/4/70 130/198/70 129/196/70
f 56/86/71 54/83/71 155/249/71 156/251/71
f 126/191/72 124/188/72 190/319/72 191/321/72
f 74/113/73 72/110/73 164/267/73 165/269/73
f 22/35/74 20/32/74 138/215/74 139/217/74
f 92/140/75 90/137/75 173/285/75 174/287/75
f 40/62/76 38/59/76 147/233/76 148/235/76
f 110/167/77 108/164/77 182/303/77 183/305/77
f 58/89/78 56/86/78 156/251/78 157/253/78
f 128/194/79 126/191/79 191/321/79 192/323/79
f 6/11/80 4/8/80 129/196/80 131/201/80
f 76/116/81 74/113/81 165/269/81 166/271/81
f 24/38/82 22/35/82 139/217/82 140/219/82
f 94/143/83 92/140/83 174/287/83 175/289/83
f 42/65/84 40/62/84 148/235/84 149/237/84
f 112/170/85 110/167/85 183/305/85 184/307/85
f 60/92/86 58/89/86 157/253/86 158/255/86
f 2/5/87 128/194/87 192/323/87 130/199/87
f 8/14/88 6/11/88 131/201/88 132/203/88
f 78/119/89 76/116/89 166/271/89 167/273/89
f 26/41/90 24/38/90 140/219/90 141/221/90
f 96/146/91 94/143/91 175/289/91 176/291/91
f 44/68/92 42/65/92 149/237/92 150/239/92
f 114/173/93 112/170/93 184/307/93 185/309/93
f 62/95/94 60/92/94 158/255/94 159/257/94
f 10/17/95 8/14/95 132/203/95 133/205/95
f 80/122/96 78/119/96 167/273/96 168/275/96
f 28/44/97 26/41/97 141/221/97 142/223/97
f 98/149/98 96/146/98 176/291/98 177/293/98
f 46/71/99 44/68/99 150/239/99 151/241/99
f 116/176/100 114/173/100 185/309/100 186/311/100
f 64/98/101 62/95/101 159/257/101 160/259/101
f 12/20/102 10/17/102 133/205/102 134/207/102
f 82/125/103 80/122/103 168/275/103 169/277/103
f 30/47/104 28/44/104 142/223/104 143/225/104
f 100/152/105 98/149/105 177/293/105 178/295/105
f 48/74/106 46/71/106 151/241/106 152/243/106
f 118/179/107 116/176/107 186/311/107 187/313/107
f 66/101/108 64/98/108 160/259/108 161/261/108
f 14/23/109 12/20/109 134/207/109 135/209/109
f 84/128/110 82/125/110 169/277/110 170/279/110
f 32/50/111 30/47/111 143/225/111 144/227/111
f 102/155/112 100/152/112 178/295/112 179/297/112
f 50/77/113 48/74/113 152/243/113 153/245/113
f 120/182/114 118/179/114 187/313/114 188/315/114
f 68/104/115 66/101/115 161/261/115 162/263/115
f 16/26/116 14/23/116 135/209/116 136/211/116
f 86/131/117 84/128/117 170/279/117 171/281/117
f 34/53/118 32/50/118 144/227/118 145/229/118
f 104/158/119 102/155/119 179/297/119 180/299/119
f 52/80/120 50/77/120 153/245/120 154/247/120
f 122/185/121 120/182/121 188/315/121 189/317/121
f 70/107/122 68/104/122 162/263/122 163/265/122
f 18/29/123 16/26/123 136/211/123 137/213/123
f 88/134/124 86/131/124 171/281/124 172/283/124
f 36/56/125 34/53/125 145/229/125 146/231/125
f 106/161/126 104/158/126 180/299/126 181/301/126
f 54/83/127 52/80/127 154/247/127 155/249/127
f 124/188/128 122/185/128 189/317/128 190/319/128
f 72/110/129 70/107/129 163/265/129 164/267/129
f 20/32/130 18/29/130 137/213/130 138/215/130
