v 0.000000 1.045059 0.976063
v 0.000000 -0.877472 0.976064
v 0.000000 1.045058 -0.946467
v 0.000000 -0.877473 -0.946467
v 0.000000 1.045058 -0.946467
v 0.000000 1.045059 0.976063
v 0.000000 -0.877472 0.976064
v 0.000000 -0.877473 -0.946467
v 0.087905 1.045058 -0.946467
v 0.087905 1.045059 0.976063
v 0.087905 -0.877472 0.976064
v 0.087905 -0.877473 -0.946467
v 0.087905 0.923406 -0.824815
v 0.087905 0.923406 0.854411
v 0.087905 -0.755820 0.854412
v 0.087905 -0.755820 -0.824815
v 0.031954 0.923406 -0.824815
v 0.031954 0.923406 0.854411
v 0.031954 -0.755820 0.854412
v 0.031954 -0.755820 -0.824815
v 0.031954 0.923406 -0.593739
v 0.031954 0.923406 0.623335
v 0.031954 -0.755820 0.623335
v 0.031954 -0.755820 -0.593739
v 0.031954 0.923406 -0.383291
v 0.031954 0.923406 0.412887
v 0.031954 -0.755820 0.412887
v 0.031954 -0.755820 -0.383290
v 0.031954 0.923406 -0.112752
v 0.031954 0.923406 0.142348
v 0.031954 -0.755820 0.142348
v 0.031954 -0.755820 -0.112751
v 0.063090 0.923406 0.623335
v 0.063090 -0.755820 0.623335
v 0.063090 -0.755820 -0.593739
v 0.063090 0.923406 -0.593739
v 0.063090 0.923406 0.412887
v 0.063090 -0.755820 0.412887
v 0.063090 -0.755820 -0.383290
v 0.063090 0.923406 -0.383291
v 0.063090 0.923406 -0.112752
v 0.063090 0.923406 0.142348
v 0.063090 -0.755820 0.142348
v 0.063090 -0.755820 -0.112751
v 0.075460 0.923406 0.603205
v 0.075460 -0.755820 0.603205
v 0.075460 -0.755820 -0.593739
v 0.075460 0.923406 -0.593739
v 0.075460 0.923406 0.433017
v 0.075460 -0.755820 0.433018
v 0.075460 -0.755820 -0.383290
v 0.075460 0.923406 -0.383291
v 0.075460 0.923406 -0.090788
v 0.075460 0.923406 0.120383
v 0.075460 -0.755820 0.120384
v 0.075460 -0.755820 -0.090787
v 0.075460 -0.755820 -0.569223
v 0.075460 0.923406 -0.569223
v 0.075460 -0.755820 -0.407806
v 0.075460 0.923406 -0.407807
v 0.000000 0.922943 -0.824352
v 0.000000 0.922943 0.853948
v 0.000000 -0.755357 0.853949
v 0.000000 -0.755357 -0.824352
v 0.014512 0.922943 -0.824352
v 0.014512 0.922943 0.853948
v 0.014512 -0.755357 0.853949
v 0.014512 -0.755357 -0.824352
v 0.014512 0.918934 0.362740
v 0.014512 0.918935 0.851486
v 0.014512 -0.755075 -0.329629
v 0.014512 -0.755075 -0.818375
v 0.006377 0.918934 0.362740
v 0.006377 0.918935 0.851486
v 0.006377 -0.755075 -0.329629
v 0.006377 -0.755075 -0.818375
v 0.000298 0.841629 0.330767
v 0.000298 0.841629 0.774372
v 0.000298 -0.677770 -0.297655
v 0.000298 -0.677770 -0.741261
v 0.002432 1.038717 0.986253
v 0.002433 -0.871130 0.986254
v 0.002433 -0.871131 -0.956657
v 0.002432 1.038716 -0.956657
v 0.085472 1.038717 0.986253
v 0.085472 -0.871130 0.986254
v 0.085472 -0.871131 -0.956657
v 0.085472 1.038716 -0.956657
v 0.004830 1.052288 -0.939663
v 0.004830 1.052289 0.969259
v 0.004830 -0.884702 0.969259
v 0.004830 -0.884703 -0.939663
v 0.083075 1.052288 -0.939663
v 0.083075 1.052289 0.969259
v 0.083075 -0.884702 0.969259
v 0.083075 -0.884703 -0.939663
vn -1.0000 -0.0000 -0.0000
vn -0.9727 -0.0000 -0.2322
vn -0.0000 -0.0000 -0.0000
vn 1.0000 -0.0000 -0.0000
vn -0.0000 -0.8490 0.5284
vn -0.0000 0.6853 -0.7282
vn -0.0000 -0.6853 0.7282
vn -0.0000 -0.0000 1.0000
vn -0.0000 -0.0000 -1.0000
vn -0.0000 1.0000 -0.0000
vn -0.0000 -1.0000 -0.0000
vn -0.9045 -0.3015 -0.3015
vn -0.9045 -0.3015 0.3015
vn 0.8382 -0.5217 -0.1589
vn 0.8382 -0.5217 0.1589
vn 0.4326 0.9016 -0.0000
vn -0.8944 0.4472 -0.0000
vn -0.9999 -0.0116 -0.0000
vn -0.9999 -0.0122 -0.0000
vn 0.8713 -0.0000 0.4907
vn 0.8520 -0.0000 -0.5235
vn 0.8520 -0.0000 0.5235
vn 0.8713 -0.0000 -0.4907
vn -0.0000 0.5765 -0.8171
vn -0.9969 -0.0784 -0.0000
vn -0.0000 -0.5765 0.8171
vn -0.9969 0.0784 -0.0000
vn -0.9497 0.1805 -0.2558
vn -0.9497 -0.1805 0.2558
vn -0.0000 0.8490 -0.5284
vn -0.9727 -0.0000 0.2322
vn -0.0000 0.8490 0.5284
vn -0.0000 -0.8490 -0.5284
vn 0.9727 -0.0000 -0.2322
vn 0.9727 -0.0000 0.2322
vn 0.8315 -0.5555 -0.0000
vn 0.8315 0.5555 -0.0000
vn -0.0000 0.6853 0.7282
vn -0.0000 -0.6853 -0.7282
vn -0.8315 -0.5555 -0.0000
vn -0.8315 0.5555 -0.0000
vt 0.406063 0.430394
vt 0.406063 0.000010
vt 0.431206 0.027347
vt 0.431206 0.403056
vt 0.398379 0.442794
vt 0.398379 0.873178
vt 0.396258 0.871758
vt 0.396258 0.444214
vt 0.614536 0.821781
vt 0.001490 0.432660
vt 0.001490 0.002306
vt 0.026541 0.029539
vt 0.026541 0.405427
vt 0.561121 0.841459
vt 0.561121 0.821780
vt 0.563219 0.822325
vt 0.563219 0.840914
vt 0.605825 0.841459
vt 0.605825 0.821781
vt 0.607331 0.822862
vt 0.607331 0.840378
vt 0.581227 0.821780
vt 0.581227 0.841459
vt 0.579738 0.840378
vt 0.579738 0.822862
vt 0.901916 0.438232
vt 0.901916 0.814149
vt 0.890395 0.814149
vt 0.890395 0.438232
vt 0.397383 0.002306
vt 0.397383 0.432660
vt 0.372332 0.405427
vt 0.372332 0.029539
vt 0.185585 0.818711
vt 0.185585 0.442794
vt 0.233168 0.442794
vt 0.233168 0.818711
vt 0.911383 0.000017
vt 0.911383 0.375921
vt 0.899862 0.375921
vt 0.899862 0.000017
vt 0.881129 0.375921
vt 0.881129 0.000017
vt 0.892651 0.000017
vt 0.892651 0.375921
vt 0.883184 0.438240
vt 0.883184 0.814145
vt 0.871662 0.814145
vt 0.871662 0.438240
vt 0.621747 0.821781
vt 0.999833 0.814145
vt 0.999833 0.438240
vt 0.999833 0.489967
vt 0.999833 0.762418
vt 1.000000 0.000017
vt 1.000000 0.375921
vt 1.000000 0.324194
vt 1.000000 0.051743
vt 0.287970 0.442794
vt 0.287970 0.818711
vt 0.240389 0.818711
vt 0.240389 0.442794
vt 0.118638 0.442794
vt 0.118638 0.818711
vt 0.062927 0.818711
vt 0.062927 0.442794
vt 1.000000 0.277079
vt 1.000000 0.098859
vt 0.438421 0.821780
vt 0.438421 0.878887
vt 0.432009 0.878887
vt 0.432009 0.821780
vt 0.948386 0.375921
vt 0.948386 0.000017
vt 0.954797 0.000017
vt 0.954797 0.375921
vt 0.938918 0.814145
vt 0.938918 0.438240
vt 0.945330 0.438240
vt 0.945330 0.814145
vt 0.000000 0.818711
vt 0.000000 0.442794
vt 0.055711 0.442794
vt 0.055711 0.818711
vt 0.406082 1.000000
vt 0.406082 0.821780
vt 0.406082 0.882345
vt 0.406082 0.939452
vt 1.000000 0.216514
vt 1.000000 0.159407
vt 0.482120 0.821780
vt 0.482120 0.868895
vt 0.479572 0.864384
vt 0.479572 0.826291
vt 0.125839 0.818711
vt 0.125839 0.442794
vt 0.130365 0.442794
vt 0.130365 0.818711
vt 0.338506 0.442794
vt 0.338506 0.818711
vt 0.334364 0.818711
vt 0.334364 0.442794
vt 0.463404 0.868895
vt 0.463404 0.821780
vt 0.469815 0.821780
vt 0.469815 0.868895
vt 0.927552 0.000009
vt 0.927552 0.375926
vt 0.921141 0.375926
vt 0.921141 0.000009
vt 0.925296 0.814149
vt 0.925296 0.438232
vt 0.931708 0.438232
vt 0.931708 0.814149
vt 0.488531 0.821780
vt 0.488531 0.868895
vt 0.909127 0.814149
vt 0.909127 0.438232
vt 0.915538 0.438232
vt 0.915538 0.814149
vt 0.413293 0.878887
vt 0.413293 0.821780
vt 0.419705 0.821780
vt 0.419705 0.878887
vt 0.934763 0.375926
vt 0.934763 0.000009
vt 0.941175 0.000009
vt 0.941175 0.375926
vt 0.520871 0.821780
vt 0.520871 0.868879
vt 0.514459 0.868879
vt 0.514459 0.821780
vt 0.495743 0.868879
vt 0.495743 0.821780
vt 0.502154 0.821780
vt 0.502154 0.868879
vt 0.535298 0.821780
vt 0.535298 0.868879
vt 0.535298 0.863399
vt 0.535298 0.827260
vt 0.299316 0.818711
vt 0.299316 0.442794
vt 0.173850 0.442794
vt 0.173850 0.818711
vt 0.918085 0.438232
vt 0.918085 0.814149
vt 0.422252 0.826692
vt 0.422252 0.873958
vt 0.295170 0.818711
vt 0.295170 0.442794
vt 0.511912 0.868879
vt 0.511912 0.821780
vt 0.504701 0.821780
vt 0.504701 0.868879
vt 0.178369 0.442794
vt 0.178369 0.818711
vt 0.918593 0.375926
vt 0.918593 0.000009
vt 0.429462 0.873958
vt 0.429462 0.826692
vt 0.472362 0.826291
vt 0.472362 0.864384
vt 0.384009 0.442794
vt 0.384009 0.818711
vt 0.350767 0.818711
vt 0.350767 0.442794
vt 0.345726 0.818711
vt 0.345726 0.442794
vt 0.389050 0.442794
vt 0.389050 0.818711
vt 0.528082 0.868879
vt 0.528082 0.821780
vt 0.528082 0.827260
vt 0.528082 0.863399
vt 0.975037 0.438232
vt 0.975037 0.813942
vt 0.972048 0.813942
vt 0.972048 0.438232
vt 0.801960 0.000010
vt 0.801960 0.430394
vt 0.776816 0.403056
vt 0.776816 0.027347
vt 0.751689 0.438240
vt 0.751689 0.813944
vt 0.751627 0.548978
vt 0.751627 0.439577
vt 0.964838 0.438240
vt 0.964838 0.813944
vt 0.961850 0.813944
vt 0.961850 0.438240
vt 0.962008 0.375721
vt 0.962008 0.000017
vt 0.964996 0.000017
vt 0.964996 0.375721
vt 0.972207 0.375719
vt 0.972207 0.000009
vt 0.975195 0.000009
vt 0.975195 0.375719
vt 0.990947 0.812980
vt 0.990947 0.438232
vt 0.992622 0.438232
vt 0.992622 0.812980
vt 0.406094 0.813944
vt 0.406094 0.438240
vt 0.406908 0.703975
vt 0.406908 0.813393
vt 0.758897 0.438240
vt 0.841119 0.501312
vt 0.837323 0.519573
vt 0.762693 0.462333
vt 0.992781 0.000009
vt 0.992781 0.374758
vt 0.991105 0.374758
vt 0.991105 0.000009
vt 0.447307 0.821780
vt 0.447307 0.931181
vt 0.445632 0.931181
vt 0.445632 0.821780
vt 0.454518 0.931190
vt 0.454518 0.821780
vt 0.456193 0.821780
vt 0.456193 0.931190
vt 0.837323 0.935860
vt 0.762693 0.878603
vt 0.841119 0.959952
vt 0.758897 0.896864
vt 0.850597 0.000010
vt 0.850597 0.427554
vt 0.833496 0.427554
vt 0.833496 0.000010
vt 0.809186 0.427554
vt 0.809186 0.000010
vt 0.826286 0.000010
vt 0.826286 0.427554
vt 0.544627 0.821781
vt 0.544627 0.841459
vt 0.542506 0.840915
vt 0.542506 0.822325
vt 0.954639 0.438207
vt 0.954639 0.868595
vt 0.952541 0.867191
vt 0.952541 0.439644
vt 0.570430 0.841459
vt 0.570430 0.821781
vt 0.572528 0.822325
vt 0.572528 0.840915
vt 0.553909 0.821780
vt 0.553909 0.841459
vt 0.551789 0.840914
vt 0.551789 0.822325
vt 0.002796 0.000000
vt 0.396077 0.000000
vt 0.396077 0.434966
vt 0.002796 0.434966
vt 0.857806 0.427347
vt 0.857807 0.000000
vt 0.873919 0.000000
vt 0.873919 0.427347
vt 0.864452 0.438207
vt 0.864452 0.865554
vt 0.848339 0.865554
vt 0.848339 0.438207
vt 0.000001 0.431156
vt 0.000001 0.003809
vt 0.398872 0.003809
vt 0.398872 0.431156
vt 0.597126 0.841459
vt 0.597126 0.821780
vt 0.598632 0.822862
vt 0.598632 0.840378
vt 0.589927 0.821781
vt 0.589927 0.841459
vt 0.588438 0.840378
vt 0.588438 0.822862
vt 0.983895 0.000010
vt 0.983895 0.430393
vt 0.982406 0.428870
vt 0.982406 0.001533
vt 0.982234 0.868616
vt 0.982234 0.438232
vt 0.983740 0.439755
vt 0.983740 0.867093
s 1
f 3/1/1 4/2/1 64/3/1 61/4/1
f 8/5/2 5/6/2 84/7/2 83/8/2
f 4/9/3 3/9/3 5/9/3 8/9/3
f 1/9/3 2/9/3 7/9/3 6/9/3
f 2/9/3 4/9/3 8/9/3 7/9/3
f 3/9/3 1/9/3 6/9/3 5/9/3
f 11/10/4 12/11/4 16/12/4 15/13/4
f 7/14/5 11/15/5 86/16/5 82/17/5
f 9/18/6 5/19/6 89/20/6 93/21/6
f 11/22/7 7/23/7 91/24/7 95/25/7
f 16/26/8 13/27/8 17/28/8 20/29/8
f 9/30/4 10/31/4 14/32/4 13/33/4
f 12/11/4 9/30/4 13/33/4 16/12/4
f 10/31/4 11/10/4 15/13/4 14/32/4
f 18/34/4 19/35/4 23/36/4 22/37/4
f 14/38/9 15/39/9 19/40/9 18/41/9
f 15/42/10 16/43/10 20/44/10 19/45/10
f 13/46/11 14/47/11 18/48/11 17/49/11
f 23/50/1 24/50/1 28/50/1 27/50/1
f 19/51/10 20/52/10 24/53/12 23/54/13
f 17/55/4 18/56/4 22/57/14 21/58/15
f 20/59/4 17/60/4 21/61/4 24/62/4
f 28/63/4 25/64/4 29/65/16 32/66/4
f 21/58/15 22/57/14 26/67/17 25/68/17
f 29/69/10 30/70/10 42/71/10 41/72/10
f 27/73/9 26/74/9 37/75/9 38/76/9
f 32/77/9 29/78/9 41/79/9 44/80/9
f 26/81/4 27/82/4 31/83/4 30/84/16
f 27/85/18 28/86/19 32/87/19 31/88/19
f 25/68/4 26/67/4 30/89/16 29/90/16
f 37/91/10 33/92/10 45/93/10 49/94/10
f 42/95/20 43/96/20 55/97/20 54/98/20
f 38/99/21 37/100/21 49/101/21 50/102/21
f 23/103/11 27/104/11 38/105/11 34/106/11
f 24/107/9 21/108/9 36/109/9 35/110/9
f 30/111/8 31/112/8 43/113/8 42/114/8
f 26/115/17 22/116/14 33/92/10 37/91/10
f 25/117/8 28/118/8 39/119/8 40/120/8
f 31/121/11 32/122/11 44/123/11 43/124/11
f 22/125/8 23/126/8 34/127/8 33/128/8
f 21/129/15 25/130/17 40/131/10 36/132/10
f 28/133/11 24/134/11 35/135/11 39/136/11
f 48/137/10 52/138/10 60/139/3 58/140/3
f 45/141/4 46/142/4 50/102/4 49/101/4
f 54/98/4 55/97/4 56/143/4 53/144/4
f 40/120/8 39/119/8 51/145/8 52/146/8
f 43/124/11 44/123/11 56/147/11 55/148/11
f 33/149/22 34/150/22 46/142/22 45/141/22
f 36/132/10 40/131/10 52/151/10 48/152/10
f 39/136/11 35/135/11 47/153/11 51/154/11
f 44/155/23 41/156/23 53/144/23 56/143/23
f 35/110/9 36/109/9 48/157/9 47/158/9
f 41/72/10 42/71/10 54/159/10 53/160/10
f 34/106/11 38/105/11 50/161/11 46/162/11
f 57/163/4 58/164/4 60/165/4 59/166/4
f 52/167/4 51/168/4 59/166/4 60/165/4
f 47/169/4 48/170/4 58/164/4 57/163/4
f 51/171/3 47/172/3 57/173/3 59/174/3
f 63/175/9 62/176/9 66/177/9 67/178/9
f 2/179/1 1/180/1 62/181/1 63/182/1
f 4/2/1 2/179/1 63/182/1 64/3/1
f 1/180/1 3/1/1 61/4/1 62/181/1
f 68/183/1 67/184/1 71/185/1 72/186/1
f 64/187/10 63/188/10 67/189/10 68/190/10
f 62/191/11 61/192/11 65/193/11 66/194/11
f 61/195/8 64/196/8 68/197/8 65/198/8
f 69/199/24 72/200/24 76/201/24 73/202/24
f 66/203/1 65/204/1 69/205/1 70/206/1
f 65/204/1 68/183/1 72/186/1 69/205/1
f 67/184/1 66/203/1 70/206/1 71/185/1
f 76/207/25 75/208/25 79/209/25 80/210/25
f 71/211/26 70/212/26 74/213/26 75/214/26
f 72/215/11 71/216/11 75/217/11 76/218/11
f 70/219/10 69/220/10 73/221/10 74/222/10
f 78/223/1 77/224/1 80/210/1 79/209/1
f 74/225/27 73/226/27 77/224/27 78/223/27
f 73/226/28 76/207/28 80/210/28 77/224/28
f 75/208/29 74/225/29 78/223/29 79/209/29
f 83/227/9 84/228/9 88/229/9 87/230/9
f 81/231/8 82/232/8 86/233/8 85/234/8
f 5/235/30 9/236/30 88/237/30 84/238/30
f 6/239/31 7/240/31 82/241/31 81/242/31
f 10/243/32 6/244/32 81/245/32 85/246/32
f 12/247/33 8/248/33 83/249/33 87/250/33
f 9/30/34 12/11/34 87/251/34 88/252/34
f 11/10/35 10/31/35 85/253/35 86/254/35
f 91/255/11 92/256/11 96/257/11 95/258/11
f 89/259/10 90/260/10 94/261/10 93/262/10
f 12/11/36 11/10/36 95/263/36 96/264/36
f 10/31/37 9/30/37 93/265/37 94/266/37
f 6/267/38 10/268/38 94/269/38 90/270/38
f 8/271/39 12/272/39 96/273/39 92/274/39
f 7/275/40 8/276/40 92/277/40 91/278/40
f 5/279/41 6/280/41 90/281/41 89/282/41
